<?xml version="1.0" encoding="UTF-8"?>
<svg id="Layer_1" xmlns="http://www.w3.org/2000/svg" viewBox="0 0 250 250">
  <defs>
    <style>
      .cls-1 {
        fill: #fff;
        fill-rule: evenodd;
      }
    </style>
  </defs>
  <path class="cls-1" d="M36.27,160.9v74.2c0,3.25-2.66,5.91-5.91,5.91H8.43c-3.24,0-5.9-2.66-5.9-5.91v-74.2c0-3.24,2.66-5.9,5.9-5.9h21.92c3.25,0,5.91,2.66,5.91,5.9h0ZM179.4,57.88l35.54-17.36c.14-.07.26-.14.38-.21,3.55,4.54,9.08,7.48,15.29,7.48,10.71,0,19.39-8.69,19.39-19.39s-8.68-19.4-19.39-19.4-19.39,8.69-19.39,19.4c0,1.62.21,3.21.58,4.72-.13.04-.26.1-.39.17l-35.54,17.34c-.12.07-.25.14-.38.21-3.54-4.54-9.08-7.48-15.28-7.48-6.93,0-13.01,3.64-16.45,9.11-.12-.07-.25-.12-.39-.17l-33.98-12.47c-.14-.04-.28-.08-.4-.13.12-.9.2-1.83.2-2.77,0-10.71-8.68-19.4-19.39-19.4s-19.39,8.69-19.39,19.4c0,3.38.86,6.55,2.38,9.32-.11.08-.22.17-.32.25l-40.98,35.14c-.11.1-.22.2-.3.29-3.28-2.5-7.36-4-11.81-4-10.71,0-19.39,8.68-19.39,19.39s8.68,19.39,19.39,19.39,19.39-8.68,19.39-19.39c0-3.38-.86-6.55-2.38-9.32.11-.08.22-.17.32-.25l40.97-35.14c.11-.1.22-.2.3-.29,3.28,2.5,7.36,4,11.81,4,6.92,0,13.01-3.64,16.43-9.11.12.07.26.12.39.17l33.99,12.47c.12.05.26.1.4.13-.14.91-.21,1.83-.21,2.78,0,10.7,8.69,19.39,19.4,19.39s19.39-8.69,19.39-19.39c0-1.63-.21-3.21-.58-4.73.14-.05.26-.1.39-.16h0ZM100.77,94.6h-21.92c-3.25,0-5.91,2.66-5.91,5.91v134.59c0,3.25,2.66,5.91,5.91,5.91h21.92c3.24,0,5.9-2.66,5.9-5.91V100.51c0-3.25-2.66-5.91-5.9-5.91ZM171.17,120.43h-21.91c-3.25,0-5.91,2.66-5.91,5.91v108.77c0,3.25,2.66,5.91,5.91,5.91h21.91c3.25,0,5.91-2.66,5.91-5.91v-108.76c0-3.26-2.66-5.91-5.91-5.91ZM241.57,86.06h-21.92c-3.24,0-5.9,2.66-5.9,5.91v143.13c0,3.25,2.66,5.91,5.9,5.91h21.92c3.25,0,5.91-2.66,5.91-5.91V91.97c0-3.25-2.65-5.91-5.91-5.91Z"/>
</svg>