<?xml version="1.0" encoding="UTF-8"?>
<svg id="Layer_1" xmlns="http://www.w3.org/2000/svg" viewBox="0 0 250 250">
  <defs>
    <style>
      .cls-1 {
        fill: #fff;
      }
    </style>
  </defs>
  <path class="cls-1" d="M250,25.54c0,6.84-5.57,12.41-12.41,12.41-3.45,0-6.57-1.42-8.83-3.69-2.22-2.24-3.58-5.32-3.58-8.72,0-6.84,5.57-12.41,12.41-12.41s12.41,5.57,12.41,12.41Z"/>
  <path class="cls-1" d="M204.29,63.15c0,2.62-2.13,4.74-4.75,4.74s-4.74-2.13-4.74-4.74c0-1.13.4-2.17,1.05-2.99.01-.01.02-.02.03-.03.87-1.05,2.19-1.73,3.66-1.73,1.31,0,2.5.53,3.36,1.39l.02.02c.84.87,1.37,2.05,1.37,3.35h0Z"/>
  <path class="cls-1" d="M167.19,33.18c0,1.13-.4,2.17-1.05,2.98-.01.01-.02.02-.03.03-.87,1.05-2.19,1.73-3.66,1.73-1.15,0-2.2-.41-3.02-1.08-.03-.02-.05-.05-.08-.07-1.01-.87-1.65-2.16-1.65-3.59,0-2.62,2.13-4.75,4.75-4.75,2.62-.01,4.74,2.12,4.74,4.74h0Z"/>
  <path class="cls-1" d="M211.92,208.83c-6.12,3.04-13,4.74-20.28,4.74-2.63,0-5.22-.23-7.73-.65-8.52-1.45-16.24-5.27-22.48-10.75l13.4-13.4c4.61,3.7,10.45,5.91,16.81,5.91,3.84,0,7.5-.81,10.81-2.27l9.47,16.41Z"/>
  <path class="cls-1" d="M237.45,167.78c0,15.86-8.11,29.87-20.4,38.08l-9.47-16.42c6.65-4.9,10.97-12.78,10.97-21.66,0-1.38-.1-2.74-.3-4.06l18.32-4.91c.58,2.9.88,5.9.88,8.97h0Z"/>
  <path class="cls-1" d="M235.03,153.09l-18.32,4.91c-3.58-9.13-12.01-15.85-22.1-16.97v-18.95c18.83,1.2,34.59,13.83,40.42,31.01Z"/>
  <path class="cls-1" d="M188.69,122.08v18.95c-7.65.84-14.36,4.91-18.71,10.82l-16.41-9.48c6.85-10.25,17.73-17.59,30.35-19.74,1.57-.27,3.16-.47,4.77-.56Z"/>
  <path class="cls-1" d="M212.62,167.78c0,7.75-4.23,14.53-10.49,18.16-3.09,1.79-6.67,2.81-10.49,2.81-5.78,0-11.03-2.35-14.83-6.15s-6.16-9.05-6.16-14.83c0-3.82,1.02-7.41,2.81-10.49,3.64-6.27,10.42-10.49,18.17-10.49,9.69,0,17.87,6.6,20.26,15.55.48,1.74.72,3.56.72,5.44h0Z"/>
  <path class="cls-1" d="M180.36,43.85v-22.79c0-6.74-5.48-12.22-12.22-12.22H12.22C5.48,8.83,0,14.32,0,21.06v207.89c0,6.74,5.48,12.22,12.22,12.22h155.92c6.74,0,12.22-5.48,12.22-12.22v-10.69c-56.78-13.46-52.53-89.22,0-100.95V51.47l-11.81-9.55c-1.73,1.22-3.84,1.93-6.11,1.93-1.56,0-3.06-.34-4.4-.95l-31.45,36.87c-.05.06-.1.12-.17.17-.06.07-.13.13-.21.19-.07.06-.14.11-.22.16-.15.1-.3.19-.47.26-.09.04-.19.08-.28.1-.1.03-.2.06-.3.08-.2.04-.41.06-.62.06H39.08c-1.63,0-2.96-1.33-2.96-2.96s1.33-2.96,2.96-2.96h83.9l30.56-35.83c-1.12-1.68-1.77-3.7-1.77-5.87,0-5.89,4.78-10.67,10.67-10.67s10.67,4.78,10.67,10.67c0,1.47-.3,2.86-.84,4.13l8.09,6.52ZM15.28,30.51h10.22c1.64,0,2.96,1.32,2.96,2.96s-1.32,2.96-2.96,2.96h-10.22c-1.63,0-2.96-1.33-2.96-2.96,0-1.64,1.33-2.96,2.96-2.96ZM15.28,52.69h10.22c1.64,0,2.96,1.33,2.96,2.96s-1.32,2.96-2.96,2.96h-10.22c-1.63,0-2.96-1.33-2.96-2.96,0-1.63,1.33-2.96,2.96-2.96ZM15.28,74.89h10.22c1.64,0,2.96,1.33,2.96,2.96s-1.32,2.96-2.96,2.96h-10.22c-1.63,0-2.96-1.33-2.96-2.96s1.33-2.96,2.96-2.96ZM15.28,97.08h10.22c1.64,0,2.96,1.33,2.96,2.96s-1.32,2.96-2.96,2.96h-10.22c-1.63,0-2.96-1.33-2.96-2.96s1.33-2.96,2.96-2.96ZM125.41,216.54c0,1.64-1.33,2.96-2.96,2.96H15.28c-1.63,0-2.96-1.32-2.96-2.96v-65.69c0-1.63,1.33-2.96,2.96-2.96h18.69c1.63,0,2.96,1.33,2.96,2.96v62.73h4.88v-72.95c0-1.63,1.33-2.96,2.96-2.96h18.69c1.63,0,2.96,1.33,2.96,2.96v72.95h4.88v-84.76c0-1.63,1.33-2.96,2.96-2.96h18.69c1.63,0,2.96,1.33,2.96,2.96v84.76h4.88v-98.4c0-1.63,1.33-2.96,2.96-2.96h18.69c1.63,0,2.96,1.33,2.96,2.96v101.37ZM39.08,97.08h85.26c1.63,0,2.96,1.33,2.96,2.96s-1.33,2.96-2.96,2.96H39.08c-1.63,0-2.96-1.33-2.96-2.96s1.33-2.96,2.96-2.96ZM124.34,58.62H39.08c-1.63,0-2.96-1.33-2.96-2.96s1.33-2.96,2.96-2.96h85.26c1.63,0,2.96,1.33,2.96,2.96s-1.33,2.96-2.96,2.96ZM124.34,36.43H39.08c-1.63,0-2.96-1.33-2.96-2.96s1.33-2.96,2.96-2.96h85.26c1.63,0,2.96,1.32,2.96,2.96s-1.33,2.96-2.96,2.96Z"/>
  <path class="cls-1" d="M106.72,118.13h12.77v95.44h-12.77v-95.44Z"/>
  <path class="cls-1" d="M77.23,131.78h12.77v81.8h-12.77v-81.8Z"/>
  <path class="cls-1" d="M47.74,143.58h12.77v69.99h-12.77v-69.99Z"/>
  <path class="cls-1" d="M18.24,153.81h12.77v59.77h-12.77v-59.77Z"/>
  <path class="cls-1" d="M170.65,184.59l-13.4,13.4c-7.1-8.07-11.41-18.65-11.41-30.2,0-7.28,1.7-14.16,4.75-20.28l16.41,9.48c-1.46,3.31-2.27,6.96-2.27,10.81,0,6.35,2.22,12.2,5.91,16.81h0Z"/>
  <path class="cls-1" d="M226.81,40.36l-17.9,17.69c-.96-1.77-2.41-3.23-4.16-4.22l17.9-17.69c1.15,1.62,2.56,3.04,4.17,4.22Z"/>
  <path class="cls-1" d="M186.28,48.64l7.15,5.77c-1.64,1.15-2.94,2.74-3.73,4.6l-3.42-2.76v-7.61Z"/>
</svg>