<?xml version="1.0" encoding="UTF-8"?>
<svg id="Layer_1" xmlns="http://www.w3.org/2000/svg" viewBox="0 0 250 250">
  <defs>
    <style>
      .cls-1 {
        fill: #fff;
      }
    </style>
  </defs>
  <g id="Layer_2">
    <g>
      <g>
        <path class="cls-1" d="M111.48,132.97c-.74-1.25-1.31-2.6-1.68-4.04h-10.16l4.72,11.17,7.13-7.13Z"/>
        <path class="cls-1" d="M121.07,140.2c-1.44-.37-2.79-.94-4.04-1.68l-7.19,7.19,11.23,4.56v-10.07Z"/>
        <path class="cls-1" d="M109.8,121.07c.37-1.44.94-2.79,1.68-4.04l-7.19-7.19-4.56,11.23h10.07Z"/>
        <path class="cls-1" d="M132.97,138.52c-1.25.74-2.6,1.31-4.04,1.68v10.16l11.16-4.72-7.12-7.12Z"/>
        <path class="cls-1" d="M151.63,103.92l7.25,17.15h20.65c-5.56-6.31-12.11-16.85-12.97-32.09l-14.94,14.94Z"/>
        <path class="cls-1" d="M132.85,125c0-4.33-3.52-7.85-7.85-7.85s-7.85,3.52-7.85,7.85,3.52,7.85,7.85,7.85,7.85-3.52,7.85-7.85Z"/>
        <path class="cls-1" d="M140.2,128.93c-.37,1.44-.94,2.79-1.68,4.04l7.18,7.18,4.55-11.22h-10.06Z"/>
        <path class="cls-1" d="M117.03,111.48c1.25-.74,2.6-1.31,4.04-1.68v-10.16l-11.16,4.72,7.12,7.12Z"/>
        <path class="cls-1" d="M128.93,109.8c1.44.37,2.79.94,4.04,1.68l7.19-7.19-11.23-4.56v10.06Z"/>
        <path class="cls-1" d="M145.98,32c-9.63-6.54-15.27-13.61-17.06-16.05v43.09c1.26,1.65,4.46,5.43,9.66,8.94,8.77,5.91,18.98,8.43,30.38,7.5l30.49-30.49c-20.08,1.84-38.07-2.53-53.47-12.99ZM205.01,50.55l-30.49,30.49c-.93,11.4,1.59,21.62,7.5,30.38,3.49,5.18,7.26,8.38,8.92,9.66h43.1c-5.36-3.93-33.05-26.49-29.04-70.52ZM111.41,182.02c-8.77-5.91-18.97-8.43-30.38-7.5l-30.49,30.49c20.08-1.84,38.07,2.53,53.47,13,9.63,6.54,15.27,13.61,17.06,16.05v-43.1c-1.28-1.66-4.47-5.43-9.66-8.93ZM59.06,128.93H15.95c5.36,3.93,33.05,26.5,29.04,70.53l30.49-30.49c1.98-24.35-12.67-37.17-16.43-40.04ZM75.48,81.04l-30.49-30.49c1.84,20.08-2.53,38.07-12.99,53.47-6.54,9.62-13.61,15.26-16.04,17.05h43.1c1.65-1.27,5.42-4.47,8.92-9.66,5.91-8.76,8.44-18.97,7.5-30.38ZM190.95,128.93c-1.65,1.26-5.42,4.46-8.93,9.66-5.91,8.76-8.44,18.97-7.5,30.38l30.49,30.49c-1.84-20.08,2.53-38.07,12.99-53.47,6.55-9.63,13.61-15.27,16.05-17.06h-43.09ZM138.59,182.02c-5.19,3.5-8.39,7.27-9.66,8.93v43.1c1.8-2.45,7.43-9.51,17.06-16.05,15.4-10.47,33.38-14.83,53.47-13l-30.49-30.49c-11.4-.93-21.61,1.59-30.38,7.5ZM104.02,32c-15.4,10.46-33.38,14.83-53.47,12.99l30.49,30.49c11.4.93,21.62-1.59,30.38-7.5,5.19-3.5,8.39-7.27,9.66-8.93V15.95c-1.8,2.45-7.43,9.51-17.06,16.05Z"/>
        <path class="cls-1" d="M98.36,146.09l-7.25-17.16h-20.64c5.56,6.31,12.11,16.85,12.97,32.09l14.93-14.93Z"/>
        <path class="cls-1" d="M128.93,158.88v20.65c6.31-5.57,16.85-12.11,32.09-12.97l-14.94-14.94-17.15,7.25Z"/>
        <path class="cls-1" d="M138.52,117.03c.74,1.25,1.31,2.6,1.68,4.04h10.15l-4.72-11.16-7.12,7.12Z"/>
        <path class="cls-1" d="M151.73,146.18l14.84,14.84c.85-15.24,7.39-25.79,12.96-32.09h-20.8l-7,17.25Z"/>
        <path class="cls-1" d="M121.07,158.74l-17.26-7-14.83,14.83c15.25.85,25.78,7.4,32.09,12.97v-20.8Z"/>
        <path class="cls-1" d="M128.93,91.26l17.26,7,14.83-14.83c-15.24-.85-25.78-7.4-32.09-12.97v20.8Z"/>
        <path class="cls-1" d="M121.07,91.11v-20.65c-6.31,5.57-16.85,12.11-32.09,12.97l14.93,14.93,17.16-7.25Z"/>
        <path class="cls-1" d="M98.26,103.81l-14.83-14.83c-.85,15.24-7.4,25.78-12.97,32.09h20.79l7-17.26Z"/>
      </g>
      <path class="cls-1" d="M248.52,248.52c-.77.77-1.77,1.15-2.78,1.15s-2.01-.38-2.78-1.15l-43.51-43.51c3.58,1.02,6.57-1.97,5.56-5.55l43.51,43.51c1.53,1.53,1.53,4.02,0,5.55Z"/>
      <g>
        <path class="cls-1" d="M50.54,44.99c-3.69-.94-6.5,1.87-5.55,5.56L1.48,7.04C-.05,5.51-.05,3.02,1.48,1.49,3.02-.05,5.5-.05,7.04,1.49l43.51,43.51Z"/>
        <path class="cls-1" d="M235.59,19.97l-30.58,30.58c.95-3.68-1.87-6.5-5.55-5.56l30.58-30.58c1.54-1.54,4.02-1.54,5.56,0,1.53,1.53,1.53,4.02,0,5.55Z"/>
        <path class="cls-1" d="M50.55,205.01L7.04,248.52c-.77.77-1.77,1.15-2.78,1.15s-2.01-.38-2.78-1.15c-1.53-1.53-1.53-4.02,0-5.55l43.51-43.51c-.94,3.68,1.87,6.51,5.56,5.55Z"/>
        <path class="cls-1" d="M15.06,128.3s.34.23.89.62H4.26c-2.17,0-3.93-1.76-3.93-3.93s1.76-3.93,3.93-3.93h11.7c-2.99,1.43-3.71,5.35-.89,7.23Z"/>
        <path class="cls-1" d="M128.93,4.79v11.16c-1.84-3.53-6.01-3.54-7.85,0V4.79c0-2.17,1.76-3.93,3.93-3.93s3.93,1.76,3.93,3.93Z"/>
        <path class="cls-1" d="M249.67,125c0,2.17-1.76,3.93-3.93,3.93h-11.69c3.54-1.83,3.53-6.02,0-7.85h11.69c2.17,0,3.93,1.76,3.93,3.93Z"/>
        <path class="cls-1" d="M128.93,234.05v11.69c0,2.17-1.76,3.93-3.93,3.93s-3.93-1.76-3.93-3.93v-11.69c1.12,1.78,2.33,2.86,4.41,2.66,1.74-.28,2.41-1.11,3.45-2.66Z"/>
      </g>
    </g>
  </g>
</svg>