<svg width="1440" height="891" viewBox="0 0 1440 891" fill="none" xmlns="http://www.w3.org/2000/svg">
<g clip-path="url(#clip0_133_1528)">
<rect x="1440" y="891" width="68.5714" height="68.5714" transform="rotate(180 1440 891)" stroke="white" stroke-opacity="0.06" stroke-width="1.37143"/>
<rect x="1371.43" y="891" width="68.5714" height="68.5714" transform="rotate(180 1371.43 891)" stroke="white" stroke-opacity="0.06" stroke-width="1.37143"/>
<rect x="1302.86" y="891" width="68.5714" height="68.5714" transform="rotate(180 1302.86 891)" stroke="white" stroke-opacity="0.06" stroke-width="1.37143"/>
<rect x="1234.29" y="891" width="68.5714" height="68.5714" transform="rotate(180 1234.29 891)" stroke="white" stroke-opacity="0.06" stroke-width="1.37143"/>
<rect x="1165.71" y="891" width="68.5714" height="68.5714" transform="rotate(180 1165.71 891)" stroke="white" stroke-opacity="0.06" stroke-width="1.37143"/>
<rect x="1097.14" y="891" width="68.5714" height="68.5714" transform="rotate(180 1097.14 891)" stroke="white" stroke-opacity="0.06" stroke-width="1.37143"/>
<rect x="1028.57" y="891" width="68.5714" height="68.5714" transform="rotate(180 1028.57 891)" stroke="white" stroke-opacity="0.06" stroke-width="1.37143"/>
<rect x="960" y="891" width="68.5714" height="68.5714" transform="rotate(180 960 891)" stroke="white" stroke-opacity="0.06" stroke-width="1.37143"/>
<rect x="891.429" y="891" width="68.5714" height="68.5714" transform="rotate(180 891.429 891)" stroke="white" stroke-opacity="0.06" stroke-width="1.37143"/>
<rect x="822.857" y="891" width="68.5714" height="68.5714" transform="rotate(180 822.857 891)" stroke="white" stroke-opacity="0.06" stroke-width="1.37143"/>
<rect x="754.286" y="891" width="68.5714" height="68.5714" transform="rotate(180 754.286 891)" stroke="white" stroke-opacity="0.06" stroke-width="1.37143"/>
<rect x="685.714" y="891" width="68.5714" height="68.5714" transform="rotate(180 685.714 891)" stroke="white" stroke-opacity="0.06" stroke-width="1.37143"/>
<rect x="617.143" y="891" width="68.5714" height="68.5714" transform="rotate(180 617.143 891)" stroke="white" stroke-opacity="0.06" stroke-width="1.37143"/>
<rect x="548.571" y="891" width="68.5714" height="68.5714" transform="rotate(180 548.571 891)" stroke="white" stroke-opacity="0.06" stroke-width="1.37143"/>
<rect x="480" y="891" width="68.5714" height="68.5714" transform="rotate(180 480 891)" stroke="white" stroke-opacity="0.06" stroke-width="1.37143"/>
<rect x="411.428" y="891" width="68.5714" height="68.5714" transform="rotate(180 411.428 891)" stroke="white" stroke-opacity="0.06" stroke-width="1.37143"/>
<rect x="342.857" y="891" width="68.5714" height="68.5714" transform="rotate(180 342.857 891)" stroke="white" stroke-opacity="0.06" stroke-width="1.37143"/>
<rect x="274.286" y="891" width="68.5714" height="68.5714" transform="rotate(180 274.286 891)" stroke="white" stroke-opacity="0.06" stroke-width="1.37143"/>
<rect x="205.714" y="891" width="68.5714" height="68.5714" transform="rotate(180 205.714 891)" stroke="white" stroke-opacity="0.06" stroke-width="1.37143"/>
<rect x="137.143" y="891" width="68.5714" height="68.5714" transform="rotate(180 137.143 891)" stroke="white" stroke-opacity="0.06" stroke-width="1.37143"/>
<rect x="68.5715" y="891" width="68.5714" height="68.5714" transform="rotate(180 68.5715 891)" stroke="white" stroke-opacity="0.06" stroke-width="1.37143"/>
<rect x="1440" y="822.429" width="68.5714" height="68.5714" transform="rotate(180 1440 822.429)" stroke="white" stroke-opacity="0.06" stroke-width="1.37143"/>
<rect x="1371.43" y="822.429" width="68.5714" height="68.5714" transform="rotate(180 1371.43 822.429)" stroke="white" stroke-opacity="0.06" stroke-width="1.37143"/>
<rect x="1302.86" y="822.429" width="68.5714" height="68.5714" transform="rotate(180 1302.86 822.429)" fill="white" fill-opacity="0.05" stroke="white" stroke-opacity="0.06" stroke-width="1.37143"/>
<rect x="1234.29" y="822.429" width="68.5714" height="68.5714" transform="rotate(180 1234.29 822.429)" stroke="white" stroke-opacity="0.06" stroke-width="1.37143"/>
<rect x="1165.71" y="822.429" width="68.5714" height="68.5714" transform="rotate(180 1165.71 822.429)" stroke="white" stroke-opacity="0.06" stroke-width="1.37143"/>
<rect x="1097.14" y="822.429" width="68.5714" height="68.5714" transform="rotate(180 1097.14 822.429)" stroke="white" stroke-opacity="0.06" stroke-width="1.37143"/>
<rect x="1028.57" y="822.429" width="68.5714" height="68.5714" transform="rotate(180 1028.57 822.429)" stroke="white" stroke-opacity="0.06" stroke-width="1.37143"/>
<rect x="960" y="822.429" width="68.5714" height="68.5714" transform="rotate(180 960 822.429)" stroke="white" stroke-opacity="0.06" stroke-width="1.37143"/>
<rect x="891.429" y="822.429" width="68.5714" height="68.5714" transform="rotate(180 891.429 822.429)" stroke="white" stroke-opacity="0.06" stroke-width="1.37143"/>
<rect x="822.857" y="822.429" width="68.5714" height="68.5714" transform="rotate(180 822.857 822.429)" fill="white" fill-opacity="0.05" stroke="white" stroke-opacity="0.06" stroke-width="1.37143"/>
<rect x="754.286" y="822.429" width="68.5714" height="68.5714" transform="rotate(180 754.286 822.429)" stroke="white" stroke-opacity="0.06" stroke-width="1.37143"/>
<rect x="685.714" y="822.429" width="68.5714" height="68.5714" transform="rotate(180 685.714 822.429)" stroke="white" stroke-opacity="0.06" stroke-width="1.37143"/>
<rect x="617.143" y="822.429" width="68.5714" height="68.5714" transform="rotate(180 617.143 822.429)" stroke="white" stroke-opacity="0.06" stroke-width="1.37143"/>
<rect x="548.571" y="822.429" width="68.5714" height="68.5714" transform="rotate(180 548.571 822.429)" stroke="white" stroke-opacity="0.06" stroke-width="1.37143"/>
<rect x="480" y="822.429" width="68.5714" height="68.5714" transform="rotate(180 480 822.429)" stroke="white" stroke-opacity="0.06" stroke-width="1.37143"/>
<rect x="411.428" y="822.429" width="68.5714" height="68.5714" transform="rotate(180 411.428 822.429)" stroke="white" stroke-opacity="0.06" stroke-width="1.37143"/>
<rect x="342.857" y="822.429" width="68.5714" height="68.5714" transform="rotate(180 342.857 822.429)" stroke="white" stroke-opacity="0.06" stroke-width="1.37143"/>
<rect x="274.286" y="822.429" width="68.5714" height="68.5714" transform="rotate(180 274.286 822.429)" stroke="white" stroke-opacity="0.06" stroke-width="1.37143"/>
<rect x="205.714" y="822.429" width="68.5714" height="68.5714" transform="rotate(180 205.714 822.429)" stroke="white" stroke-opacity="0.06" stroke-width="1.37143"/>
<rect x="137.143" y="822.429" width="68.5714" height="68.5714" transform="rotate(180 137.143 822.429)" stroke="white" stroke-opacity="0.06" stroke-width="1.37143"/>
<rect x="68.5715" y="822.429" width="68.5714" height="68.5714" transform="rotate(180 68.5715 822.429)" stroke="white" stroke-opacity="0.06" stroke-width="1.37143"/>
<rect x="1440" y="753.857" width="68.5714" height="68.5714" transform="rotate(180 1440 753.857)" stroke="white" stroke-opacity="0.06" stroke-width="1.37143"/>
<rect x="1371.43" y="753.857" width="68.5714" height="68.5714" transform="rotate(180 1371.43 753.857)" stroke="white" stroke-opacity="0.06" stroke-width="1.37143"/>
<rect x="1302.86" y="753.857" width="68.5714" height="68.5714" transform="rotate(180 1302.86 753.857)" stroke="white" stroke-opacity="0.06" stroke-width="1.37143"/>
<rect x="1234.29" y="753.857" width="68.5714" height="68.5714" transform="rotate(180 1234.29 753.857)" stroke="white" stroke-opacity="0.06" stroke-width="1.37143"/>
<rect x="1165.71" y="753.857" width="68.5714" height="68.5714" transform="rotate(180 1165.71 753.857)" stroke="white" stroke-opacity="0.06" stroke-width="1.37143"/>
<rect x="1097.14" y="753.857" width="68.5714" height="68.5714" transform="rotate(180 1097.14 753.857)" stroke="white" stroke-opacity="0.06" stroke-width="1.37143"/>
<rect x="1028.57" y="753.857" width="68.5714" height="68.5714" transform="rotate(180 1028.57 753.857)" stroke="white" stroke-opacity="0.06" stroke-width="1.37143"/>
<rect x="960" y="753.857" width="68.5714" height="68.5714" transform="rotate(180 960 753.857)" stroke="white" stroke-opacity="0.06" stroke-width="1.37143"/>
<rect x="891.429" y="753.857" width="68.5714" height="68.5714" transform="rotate(180 891.429 753.857)" stroke="white" stroke-opacity="0.06" stroke-width="1.37143"/>
<rect x="822.857" y="753.857" width="68.5714" height="68.5714" transform="rotate(180 822.857 753.857)" stroke="white" stroke-opacity="0.06" stroke-width="1.37143"/>
<rect x="754.286" y="753.857" width="68.5714" height="68.5714" transform="rotate(180 754.286 753.857)" stroke="white" stroke-opacity="0.06" stroke-width="1.37143"/>
<rect x="685.714" y="753.857" width="68.5714" height="68.5714" transform="rotate(180 685.714 753.857)" stroke="white" stroke-opacity="0.06" stroke-width="1.37143"/>
<rect x="617.143" y="753.857" width="68.5714" height="68.5714" transform="rotate(180 617.143 753.857)" stroke="white" stroke-opacity="0.06" stroke-width="1.37143"/>
<rect x="548.571" y="753.857" width="68.5714" height="68.5714" transform="rotate(180 548.571 753.857)" stroke="white" stroke-opacity="0.06" stroke-width="1.37143"/>
<rect x="480" y="753.857" width="68.5714" height="68.5714" transform="rotate(180 480 753.857)" stroke="white" stroke-opacity="0.06" stroke-width="1.37143"/>
<rect x="411.428" y="753.857" width="68.5714" height="68.5714" transform="rotate(180 411.428 753.857)" stroke="white" stroke-opacity="0.06" stroke-width="1.37143"/>
<rect x="342.857" y="753.857" width="68.5714" height="68.5714" transform="rotate(180 342.857 753.857)" fill="white" fill-opacity="0.05" stroke="white" stroke-opacity="0.06" stroke-width="1.37143"/>
<rect x="274.286" y="753.857" width="68.5714" height="68.5714" transform="rotate(180 274.286 753.857)" stroke="white" stroke-opacity="0.06" stroke-width="1.37143"/>
<rect x="205.714" y="753.857" width="68.5714" height="68.5714" transform="rotate(180 205.714 753.857)" stroke="white" stroke-opacity="0.06" stroke-width="1.37143"/>
<rect x="137.143" y="753.857" width="68.5714" height="68.5714" transform="rotate(180 137.143 753.857)" stroke="white" stroke-opacity="0.06" stroke-width="1.37143"/>
<rect x="68.5715" y="753.857" width="68.5714" height="68.5714" transform="rotate(180 68.5715 753.857)" stroke="white" stroke-opacity="0.06" stroke-width="1.37143"/>
<rect x="1440" y="685.286" width="68.5714" height="68.5714" transform="rotate(180 1440 685.286)" stroke="white" stroke-opacity="0.06" stroke-width="1.37143"/>
<rect x="1371.43" y="685.286" width="68.5714" height="68.5714" transform="rotate(180 1371.43 685.286)" stroke="white" stroke-opacity="0.06" stroke-width="1.37143"/>
<rect x="1302.86" y="685.286" width="68.5714" height="68.5714" transform="rotate(180 1302.86 685.286)" stroke="white" stroke-opacity="0.06" stroke-width="1.37143"/>
<rect x="1234.29" y="685.286" width="68.5714" height="68.5714" transform="rotate(180 1234.29 685.286)" stroke="white" stroke-opacity="0.06" stroke-width="1.37143"/>
<rect x="1165.71" y="685.286" width="68.5714" height="68.5714" transform="rotate(180 1165.71 685.286)" stroke="white" stroke-opacity="0.06" stroke-width="1.37143"/>
<rect x="1097.14" y="685.286" width="68.5714" height="68.5714" transform="rotate(180 1097.14 685.286)" stroke="white" stroke-opacity="0.06" stroke-width="1.37143"/>
<rect x="1028.57" y="685.286" width="68.5714" height="68.5714" transform="rotate(180 1028.57 685.286)" stroke="white" stroke-opacity="0.06" stroke-width="1.37143"/>
<rect x="960" y="685.286" width="68.5714" height="68.5714" transform="rotate(180 960 685.286)" stroke="white" stroke-opacity="0.06" stroke-width="1.37143"/>
<rect x="891.429" y="685.286" width="68.5714" height="68.5714" transform="rotate(180 891.429 685.286)" stroke="white" stroke-opacity="0.06" stroke-width="1.37143"/>
<rect x="822.857" y="685.286" width="68.5714" height="68.5714" transform="rotate(180 822.857 685.286)" stroke="white" stroke-opacity="0.06" stroke-width="1.37143"/>
<rect x="754.286" y="685.286" width="68.5714" height="68.5714" transform="rotate(180 754.286 685.286)" stroke="white" stroke-opacity="0.06" stroke-width="1.37143"/>
<rect x="685.714" y="685.286" width="68.5714" height="68.5714" transform="rotate(180 685.714 685.286)" stroke="white" stroke-opacity="0.06" stroke-width="1.37143"/>
<rect x="617.143" y="685.286" width="68.5714" height="68.5714" transform="rotate(180 617.143 685.286)" stroke="white" stroke-opacity="0.06" stroke-width="1.37143"/>
<rect x="548.571" y="685.286" width="68.5714" height="68.5714" transform="rotate(180 548.571 685.286)" stroke="white" stroke-opacity="0.06" stroke-width="1.37143"/>
<rect x="480" y="685.286" width="68.5714" height="68.5714" transform="rotate(180 480 685.286)" stroke="white" stroke-opacity="0.06" stroke-width="1.37143"/>
<rect x="411.428" y="685.286" width="68.5714" height="68.5714" transform="rotate(180 411.428 685.286)" stroke="white" stroke-opacity="0.06" stroke-width="1.37143"/>
<rect x="342.857" y="685.286" width="68.5714" height="68.5714" transform="rotate(180 342.857 685.286)" stroke="white" stroke-opacity="0.06" stroke-width="1.37143"/>
<rect x="274.286" y="685.286" width="68.5714" height="68.5714" transform="rotate(180 274.286 685.286)" stroke="white" stroke-opacity="0.06" stroke-width="1.37143"/>
<rect x="205.714" y="685.286" width="68.5714" height="68.5714" transform="rotate(180 205.714 685.286)" stroke="white" stroke-opacity="0.06" stroke-width="1.37143"/>
<rect x="137.143" y="685.286" width="68.5714" height="68.5714" transform="rotate(180 137.143 685.286)" stroke="white" stroke-opacity="0.06" stroke-width="1.37143"/>
<rect x="68.5715" y="685.286" width="68.5714" height="68.5714" transform="rotate(180 68.5715 685.286)" stroke="white" stroke-opacity="0.06" stroke-width="1.37143"/>
<rect x="1440" y="616.715" width="68.5714" height="68.5714" transform="rotate(180 1440 616.715)" stroke="white" stroke-opacity="0.06" stroke-width="1.37143"/>
<rect x="1371.43" y="616.714" width="68.5714" height="68.5714" transform="rotate(180 1371.43 616.714)" stroke="white" stroke-opacity="0.06" stroke-width="1.37143"/>
<rect x="1302.86" y="616.714" width="68.5714" height="68.5714" transform="rotate(180 1302.86 616.714)" stroke="white" stroke-opacity="0.06" stroke-width="1.37143"/>
<rect x="1234.29" y="616.714" width="68.5714" height="68.5714" transform="rotate(180 1234.29 616.714)" fill="white" fill-opacity="0.05" stroke="white" stroke-opacity="0.06" stroke-width="1.37143"/>
<rect x="1165.71" y="616.714" width="68.5714" height="68.5714" transform="rotate(180 1165.71 616.714)" stroke="white" stroke-opacity="0.06" stroke-width="1.37143"/>
<rect x="1097.14" y="616.714" width="68.5714" height="68.5714" transform="rotate(180 1097.14 616.714)" stroke="white" stroke-opacity="0.06" stroke-width="1.37143"/>
<rect x="1028.57" y="616.714" width="68.5714" height="68.5714" transform="rotate(180 1028.57 616.714)" stroke="white" stroke-opacity="0.06" stroke-width="1.37143"/>
<rect x="960" y="616.714" width="68.5714" height="68.5714" transform="rotate(180 960 616.714)" stroke="white" stroke-opacity="0.06" stroke-width="1.37143"/>
<rect x="891.429" y="616.714" width="68.5714" height="68.5714" transform="rotate(180 891.429 616.714)" stroke="white" stroke-opacity="0.06" stroke-width="1.37143"/>
<rect x="822.857" y="616.714" width="68.5714" height="68.5714" transform="rotate(180 822.857 616.714)" stroke="white" stroke-opacity="0.06" stroke-width="1.37143"/>
<rect x="754.286" y="616.714" width="68.5714" height="68.5714" transform="rotate(180 754.286 616.714)" stroke="white" stroke-opacity="0.06" stroke-width="1.37143"/>
<rect x="685.714" y="616.714" width="68.5714" height="68.5714" transform="rotate(180 685.714 616.714)" stroke="white" stroke-opacity="0.06" stroke-width="1.37143"/>
<rect x="617.143" y="616.714" width="68.5714" height="68.5714" transform="rotate(180 617.143 616.714)" fill="white" fill-opacity="0.05" stroke="white" stroke-opacity="0.06" stroke-width="1.37143"/>
<rect x="548.571" y="616.714" width="68.5714" height="68.5714" transform="rotate(180 548.571 616.714)" stroke="white" stroke-opacity="0.06" stroke-width="1.37143"/>
<rect x="480" y="616.715" width="68.5714" height="68.5714" transform="rotate(180 480 616.715)" stroke="white" stroke-opacity="0.06" stroke-width="1.37143"/>
<rect x="411.428" y="616.714" width="68.5714" height="68.5714" transform="rotate(180 411.428 616.714)" stroke="white" stroke-opacity="0.06" stroke-width="1.37143"/>
<rect x="342.857" y="616.714" width="68.5714" height="68.5714" transform="rotate(180 342.857 616.714)" stroke="white" stroke-opacity="0.06" stroke-width="1.37143"/>
<rect x="274.286" y="616.714" width="68.5714" height="68.5714" transform="rotate(180 274.286 616.714)" stroke="white" stroke-opacity="0.06" stroke-width="1.37143"/>
<rect x="205.714" y="616.714" width="68.5714" height="68.5714" transform="rotate(180 205.714 616.714)" stroke="white" stroke-opacity="0.06" stroke-width="1.37143"/>
<rect x="137.143" y="616.714" width="68.5714" height="68.5714" transform="rotate(180 137.143 616.714)" stroke="white" stroke-opacity="0.06" stroke-width="1.37143"/>
<rect x="68.5715" y="616.714" width="68.5714" height="68.5714" transform="rotate(180 68.5715 616.714)" stroke="white" stroke-opacity="0.06" stroke-width="1.37143"/>
<rect x="1440" y="548.143" width="68.5714" height="68.5714" transform="rotate(180 1440 548.143)" stroke="white" stroke-opacity="0.06" stroke-width="1.37143"/>
<rect x="1371.43" y="548.143" width="68.5714" height="68.5714" transform="rotate(180 1371.43 548.143)" stroke="white" stroke-opacity="0.06" stroke-width="1.37143"/>
<rect x="1302.86" y="548.143" width="68.5714" height="68.5714" transform="rotate(180 1302.86 548.143)" stroke="white" stroke-opacity="0.06" stroke-width="1.37143"/>
<rect x="1234.29" y="548.143" width="68.5714" height="68.5714" transform="rotate(180 1234.29 548.143)" stroke="white" stroke-opacity="0.06" stroke-width="1.37143"/>
<rect x="1165.71" y="548.143" width="68.5714" height="68.5714" transform="rotate(180 1165.71 548.143)" stroke="white" stroke-opacity="0.06" stroke-width="1.37143"/>
<rect x="1097.14" y="548.143" width="68.5714" height="68.5714" transform="rotate(180 1097.14 548.143)" stroke="white" stroke-opacity="0.06" stroke-width="1.37143"/>
<rect x="1028.57" y="548.143" width="68.5714" height="68.5714" transform="rotate(180 1028.57 548.143)" stroke="white" stroke-opacity="0.06" stroke-width="1.37143"/>
<rect x="960" y="548.143" width="68.5714" height="68.5714" transform="rotate(180 960 548.143)" stroke="white" stroke-opacity="0.06" stroke-width="1.37143"/>
<rect x="891.429" y="548.143" width="68.5714" height="68.5714" transform="rotate(180 891.429 548.143)" stroke="white" stroke-opacity="0.06" stroke-width="1.37143"/>
<rect x="822.857" y="548.143" width="68.5714" height="68.5714" transform="rotate(180 822.857 548.143)" stroke="white" stroke-opacity="0.06" stroke-width="1.37143"/>
<rect x="754.286" y="548.143" width="68.5714" height="68.5714" transform="rotate(180 754.286 548.143)" stroke="white" stroke-opacity="0.06" stroke-width="1.37143"/>
<rect x="685.714" y="548.143" width="68.5714" height="68.5714" transform="rotate(180 685.714 548.143)" stroke="white" stroke-opacity="0.06" stroke-width="1.37143"/>
<rect x="617.143" y="548.143" width="68.5714" height="68.5714" transform="rotate(180 617.143 548.143)" stroke="white" stroke-opacity="0.06" stroke-width="1.37143"/>
<rect x="548.571" y="548.143" width="68.5714" height="68.5714" transform="rotate(180 548.571 548.143)" stroke="white" stroke-opacity="0.06" stroke-width="1.37143"/>
<rect x="480" y="548.143" width="68.5714" height="68.5714" transform="rotate(180 480 548.143)" stroke="white" stroke-opacity="0.06" stroke-width="1.37143"/>
<rect x="411.428" y="548.143" width="68.5714" height="68.5714" transform="rotate(180 411.428 548.143)" stroke="white" stroke-opacity="0.06" stroke-width="1.37143"/>
<rect x="342.857" y="548.143" width="68.5714" height="68.5714" transform="rotate(180 342.857 548.143)" stroke="white" stroke-opacity="0.06" stroke-width="1.37143"/>
<rect x="274.286" y="548.143" width="68.5714" height="68.5714" transform="rotate(180 274.286 548.143)" stroke="white" stroke-opacity="0.06" stroke-width="1.37143"/>
<rect x="205.714" y="548.143" width="68.5714" height="68.5714" transform="rotate(180 205.714 548.143)" fill="white" fill-opacity="0.05" stroke="white" stroke-opacity="0.06" stroke-width="1.37143"/>
<rect x="137.143" y="548.143" width="68.5714" height="68.5714" transform="rotate(180 137.143 548.143)" stroke="white" stroke-opacity="0.06" stroke-width="1.37143"/>
<rect x="68.5715" y="548.143" width="68.5714" height="68.5714" transform="rotate(180 68.5715 548.143)" stroke="white" stroke-opacity="0.06" stroke-width="1.37143"/>
<rect x="1440" y="479.571" width="68.5714" height="68.5714" transform="rotate(180 1440 479.571)" stroke="white" stroke-opacity="0.06" stroke-width="1.37143"/>
<rect x="1371.43" y="479.571" width="68.5714" height="68.5714" transform="rotate(180 1371.43 479.571)" stroke="white" stroke-opacity="0.06" stroke-width="1.37143"/>
<rect x="1302.86" y="479.571" width="68.5714" height="68.5714" transform="rotate(180 1302.86 479.571)" stroke="white" stroke-opacity="0.06" stroke-width="1.37143"/>
<rect x="1234.29" y="479.571" width="68.5714" height="68.5714" transform="rotate(180 1234.29 479.571)" stroke="white" stroke-opacity="0.06" stroke-width="1.37143"/>
<rect x="1165.71" y="479.571" width="68.5714" height="68.5714" transform="rotate(180 1165.71 479.571)" stroke="white" stroke-opacity="0.06" stroke-width="1.37143"/>
<rect x="1097.14" y="479.571" width="68.5714" height="68.5714" transform="rotate(180 1097.14 479.571)" stroke="white" stroke-opacity="0.06" stroke-width="1.37143"/>
<rect x="1028.57" y="479.571" width="68.5714" height="68.5714" transform="rotate(180 1028.57 479.571)" stroke="white" stroke-opacity="0.06" stroke-width="1.37143"/>
<rect x="960" y="479.571" width="68.5714" height="68.5714" transform="rotate(180 960 479.571)" stroke="white" stroke-opacity="0.06" stroke-width="1.37143"/>
<rect x="891.429" y="479.571" width="68.5714" height="68.5714" transform="rotate(180 891.429 479.571)" stroke="white" stroke-opacity="0.06" stroke-width="1.37143"/>
<rect x="822.857" y="479.571" width="68.5714" height="68.5714" transform="rotate(180 822.857 479.571)" stroke="white" stroke-opacity="0.06" stroke-width="1.37143"/>
<rect x="754.286" y="479.571" width="68.5714" height="68.5714" transform="rotate(180 754.286 479.571)" stroke="white" stroke-opacity="0.06" stroke-width="1.37143"/>
<rect x="685.714" y="479.571" width="68.5714" height="68.5714" transform="rotate(180 685.714 479.571)" stroke="white" stroke-opacity="0.06" stroke-width="1.37143"/>
<rect x="617.143" y="479.571" width="68.5714" height="68.5714" transform="rotate(180 617.143 479.571)" stroke="white" stroke-opacity="0.06" stroke-width="1.37143"/>
<rect x="548.571" y="479.571" width="68.5714" height="68.5714" transform="rotate(180 548.571 479.571)" stroke="white" stroke-opacity="0.06" stroke-width="1.37143"/>
<rect x="480" y="479.571" width="68.5714" height="68.5714" transform="rotate(180 480 479.571)" stroke="white" stroke-opacity="0.06" stroke-width="1.37143"/>
<rect x="411.428" y="479.571" width="68.5714" height="68.5714" transform="rotate(180 411.428 479.571)" stroke="white" stroke-opacity="0.06" stroke-width="1.37143"/>
<rect x="342.857" y="479.571" width="68.5714" height="68.5714" transform="rotate(180 342.857 479.571)" stroke="white" stroke-opacity="0.06" stroke-width="1.37143"/>
<rect x="274.286" y="479.571" width="68.5714" height="68.5714" transform="rotate(180 274.286 479.571)" stroke="white" stroke-opacity="0.06" stroke-width="1.37143"/>
<rect x="205.714" y="479.571" width="68.5714" height="68.5714" transform="rotate(180 205.714 479.571)" stroke="white" stroke-opacity="0.06" stroke-width="1.37143"/>
<rect x="137.143" y="479.571" width="68.5714" height="68.5714" transform="rotate(180 137.143 479.571)" stroke="white" stroke-opacity="0.06" stroke-width="1.37143"/>
<rect x="68.5715" y="479.571" width="68.5714" height="68.5714" transform="rotate(180 68.5715 479.571)" stroke="white" stroke-opacity="0.06" stroke-width="1.37143"/>
<rect x="1440" y="411" width="68.5714" height="68.5714" transform="rotate(180 1440 411)" stroke="white" stroke-opacity="0.06" stroke-width="1.37143"/>
<rect x="1371.43" y="411" width="68.5714" height="68.5714" transform="rotate(180 1371.43 411)" stroke="white" stroke-opacity="0.06" stroke-width="1.37143"/>
<rect x="1302.86" y="411" width="68.5714" height="68.5714" transform="rotate(180 1302.86 411)" stroke="white" stroke-opacity="0.06" stroke-width="1.37143"/>
<rect x="1234.29" y="411" width="68.5714" height="68.5714" transform="rotate(180 1234.29 411)" stroke="white" stroke-opacity="0.06" stroke-width="1.37143"/>
<rect x="1165.71" y="411" width="68.5714" height="68.5714" transform="rotate(180 1165.71 411)" stroke="white" stroke-opacity="0.06" stroke-width="1.37143"/>
<rect x="1097.14" y="411" width="68.5714" height="68.5714" transform="rotate(180 1097.14 411)" stroke="white" stroke-opacity="0.06" stroke-width="1.37143"/>
<rect x="1028.57" y="411" width="68.5714" height="68.5714" transform="rotate(180 1028.57 411)" stroke="white" stroke-opacity="0.06" stroke-width="1.37143"/>
<rect x="960" y="411" width="68.5714" height="68.5714" transform="rotate(180 960 411)" stroke="white" stroke-opacity="0.06" stroke-width="1.37143"/>
<rect x="891.429" y="411" width="68.5714" height="68.5714" transform="rotate(180 891.429 411)" fill="white" fill-opacity="0.05" stroke="white" stroke-opacity="0.06" stroke-width="1.37143"/>
<rect x="822.857" y="411" width="68.5714" height="68.5714" transform="rotate(180 822.857 411)" stroke="white" stroke-opacity="0.06" stroke-width="1.37143"/>
<rect x="754.286" y="411" width="68.5714" height="68.5714" transform="rotate(180 754.286 411)" stroke="white" stroke-opacity="0.06" stroke-width="1.37143"/>
<rect x="685.714" y="411" width="68.5714" height="68.5714" transform="rotate(180 685.714 411)" stroke="white" stroke-opacity="0.06" stroke-width="1.37143"/>
<rect x="617.143" y="411" width="68.5714" height="68.5714" transform="rotate(180 617.143 411)" stroke="white" stroke-opacity="0.06" stroke-width="1.37143"/>
<rect x="548.571" y="411" width="68.5714" height="68.5714" transform="rotate(180 548.571 411)" stroke="white" stroke-opacity="0.06" stroke-width="1.37143"/>
<rect x="480" y="411" width="68.5714" height="68.5714" transform="rotate(180 480 411)" stroke="white" stroke-opacity="0.06" stroke-width="1.37143"/>
<rect x="411.428" y="411" width="68.5714" height="68.5714" transform="rotate(180 411.428 411)" stroke="white" stroke-opacity="0.06" stroke-width="1.37143"/>
<rect x="342.857" y="411" width="68.5714" height="68.5714" transform="rotate(180 342.857 411)" stroke="white" stroke-opacity="0.06" stroke-width="1.37143"/>
<rect x="274.286" y="411" width="68.5714" height="68.5714" transform="rotate(180 274.286 411)" stroke="white" stroke-opacity="0.06" stroke-width="1.37143"/>
<rect x="205.714" y="411" width="68.5714" height="68.5714" transform="rotate(180 205.714 411)" stroke="white" stroke-opacity="0.06" stroke-width="1.37143"/>
<rect x="137.143" y="411" width="68.5714" height="68.5714" transform="rotate(180 137.143 411)" stroke="white" stroke-opacity="0.06" stroke-width="1.37143"/>
<rect x="68.5715" y="411" width="68.5714" height="68.5714" transform="rotate(180 68.5715 411)" stroke="white" stroke-opacity="0.06" stroke-width="1.37143"/>
<rect x="1440" y="342.429" width="68.5714" height="68.5714" transform="rotate(180 1440 342.429)" stroke="white" stroke-opacity="0.06" stroke-width="1.37143"/>
<rect x="1371.43" y="342.429" width="68.5714" height="68.5714" transform="rotate(180 1371.43 342.429)" stroke="white" stroke-opacity="0.06" stroke-width="1.37143"/>
<rect x="1302.86" y="342.429" width="68.5714" height="68.5714" transform="rotate(180 1302.86 342.429)" stroke="white" stroke-opacity="0.06" stroke-width="1.37143"/>
<rect x="1234.29" y="342.429" width="68.5714" height="68.5714" transform="rotate(180 1234.29 342.429)" stroke="white" stroke-opacity="0.06" stroke-width="1.37143"/>
<rect x="1165.71" y="342.429" width="68.5714" height="68.5714" transform="rotate(180 1165.71 342.429)" fill="white" fill-opacity="0.05" stroke="white" stroke-opacity="0.06" stroke-width="1.37143"/>
<rect x="1097.14" y="342.429" width="68.5714" height="68.5714" transform="rotate(180 1097.14 342.429)" stroke="white" stroke-opacity="0.06" stroke-width="1.37143"/>
<rect x="1028.57" y="342.429" width="68.5714" height="68.5714" transform="rotate(180 1028.57 342.429)" stroke="white" stroke-opacity="0.06" stroke-width="1.37143"/>
<rect x="960" y="342.429" width="68.5714" height="68.5714" transform="rotate(180 960 342.429)" stroke="white" stroke-opacity="0.06" stroke-width="1.37143"/>
<rect x="891.429" y="342.429" width="68.5714" height="68.5714" transform="rotate(180 891.429 342.429)" stroke="white" stroke-opacity="0.06" stroke-width="1.37143"/>
<rect x="822.857" y="342.429" width="68.5714" height="68.5714" transform="rotate(180 822.857 342.429)" stroke="white" stroke-opacity="0.06" stroke-width="1.37143"/>
<rect x="754.286" y="342.429" width="68.5714" height="68.5714" transform="rotate(180 754.286 342.429)" stroke="white" stroke-opacity="0.06" stroke-width="1.37143"/>
<rect x="685.714" y="342.429" width="68.5714" height="68.5714" transform="rotate(180 685.714 342.429)" stroke="white" stroke-opacity="0.06" stroke-width="1.37143"/>
<rect x="617.143" y="342.429" width="68.5714" height="68.5714" transform="rotate(180 617.143 342.429)" stroke="white" stroke-opacity="0.06" stroke-width="1.37143"/>
<rect x="548.571" y="342.429" width="68.5714" height="68.5714" transform="rotate(180 548.571 342.429)" stroke="white" stroke-opacity="0.06" stroke-width="1.37143"/>
<rect x="480" y="342.429" width="68.5714" height="68.5714" transform="rotate(180 480 342.429)" stroke="white" stroke-opacity="0.06" stroke-width="1.37143"/>
<rect x="411.428" y="342.429" width="68.5714" height="68.5714" transform="rotate(180 411.428 342.429)" stroke="white" stroke-opacity="0.06" stroke-width="1.37143"/>
<rect x="342.857" y="342.429" width="68.5714" height="68.5714" transform="rotate(180 342.857 342.429)" stroke="white" stroke-opacity="0.06" stroke-width="1.37143"/>
<rect x="274.286" y="342.429" width="68.5714" height="68.5714" transform="rotate(180 274.286 342.429)" stroke="white" stroke-opacity="0.06" stroke-width="1.37143"/>
<rect x="205.714" y="342.429" width="68.5714" height="68.5714" transform="rotate(180 205.714 342.429)" stroke="white" stroke-opacity="0.06" stroke-width="1.37143"/>
<rect x="137.143" y="342.429" width="68.5714" height="68.5714" transform="rotate(180 137.143 342.429)" stroke="white" stroke-opacity="0.06" stroke-width="1.37143"/>
<rect x="68.5715" y="342.429" width="68.5714" height="68.5714" transform="rotate(180 68.5715 342.429)" stroke="white" stroke-opacity="0.06" stroke-width="1.37143"/>
<rect x="1440" y="273.857" width="68.5714" height="68.5714" transform="rotate(180 1440 273.857)" stroke="white" stroke-opacity="0.06" stroke-width="1.37143"/>
<rect x="1371.43" y="273.858" width="68.5714" height="68.5714" transform="rotate(180 1371.43 273.858)" stroke="white" stroke-opacity="0.06" stroke-width="1.37143"/>
<rect x="1302.86" y="273.858" width="68.5714" height="68.5714" transform="rotate(180 1302.86 273.858)" stroke="white" stroke-opacity="0.06" stroke-width="1.37143"/>
<rect x="1234.29" y="273.858" width="68.5714" height="68.5714" transform="rotate(180 1234.29 273.858)" stroke="white" stroke-opacity="0.06" stroke-width="1.37143"/>
<rect x="1165.71" y="273.858" width="68.5714" height="68.5714" transform="rotate(180 1165.71 273.858)" stroke="white" stroke-opacity="0.06" stroke-width="1.37143"/>
<rect x="1097.14" y="273.858" width="68.5714" height="68.5714" transform="rotate(180 1097.14 273.858)" stroke="white" stroke-opacity="0.06" stroke-width="1.37143"/>
<rect x="1028.57" y="273.858" width="68.5714" height="68.5714" transform="rotate(180 1028.57 273.858)" stroke="white" stroke-opacity="0.06" stroke-width="1.37143"/>
<rect x="960" y="273.858" width="68.5714" height="68.5714" transform="rotate(180 960 273.858)" stroke="white" stroke-opacity="0.06" stroke-width="1.37143"/>
<rect x="891.429" y="273.858" width="68.5714" height="68.5714" transform="rotate(180 891.429 273.858)" stroke="white" stroke-opacity="0.06" stroke-width="1.37143"/>
<rect x="822.857" y="273.858" width="68.5714" height="68.5714" transform="rotate(180 822.857 273.858)" stroke="white" stroke-opacity="0.06" stroke-width="1.37143"/>
<rect x="754.286" y="273.858" width="68.5714" height="68.5714" transform="rotate(180 754.286 273.858)" stroke="white" stroke-opacity="0.06" stroke-width="1.37143"/>
<rect x="685.714" y="273.858" width="68.5714" height="68.5714" transform="rotate(180 685.714 273.858)" stroke="white" stroke-opacity="0.06" stroke-width="1.37143"/>
<rect x="617.143" y="273.858" width="68.5714" height="68.5714" transform="rotate(180 617.143 273.858)" stroke="white" stroke-opacity="0.06" stroke-width="1.37143"/>
<rect x="548.571" y="273.858" width="68.5714" height="68.5714" transform="rotate(180 548.571 273.858)" stroke="white" stroke-opacity="0.06" stroke-width="1.37143"/>
<rect x="480" y="273.857" width="68.5714" height="68.5714" transform="rotate(180 480 273.857)" stroke="white" stroke-opacity="0.06" stroke-width="1.37143"/>
<rect x="411.428" y="273.858" width="68.5714" height="68.5714" transform="rotate(180 411.428 273.858)" stroke="white" stroke-opacity="0.06" stroke-width="1.37143"/>
<rect x="342.857" y="273.858" width="68.5714" height="68.5714" transform="rotate(180 342.857 273.858)" stroke="white" stroke-opacity="0.06" stroke-width="1.37143"/>
<rect x="274.286" y="273.858" width="68.5714" height="68.5714" transform="rotate(180 274.286 273.858)" stroke="white" stroke-opacity="0.06" stroke-width="1.37143"/>
<rect x="205.714" y="273.858" width="68.5714" height="68.5714" transform="rotate(180 205.714 273.858)" stroke="white" stroke-opacity="0.06" stroke-width="1.37143"/>
<rect x="137.143" y="273.858" width="68.5714" height="68.5714" transform="rotate(180 137.143 273.858)" stroke="white" stroke-opacity="0.06" stroke-width="1.37143"/>
<rect x="68.5715" y="273.858" width="68.5714" height="68.5714" transform="rotate(180 68.5715 273.858)" stroke="white" stroke-opacity="0.06" stroke-width="1.37143"/>
<rect x="1440" y="205.286" width="68.5714" height="68.5714" transform="rotate(180 1440 205.286)" stroke="white" stroke-opacity="0.06" stroke-width="1.37143"/>
<rect x="1371.43" y="205.286" width="68.5714" height="68.5714" transform="rotate(180 1371.43 205.286)" stroke="white" stroke-opacity="0.06" stroke-width="1.37143"/>
<rect x="1302.86" y="205.286" width="68.5714" height="68.5714" transform="rotate(180 1302.86 205.286)" stroke="white" stroke-opacity="0.06" stroke-width="1.37143"/>
<rect x="1234.29" y="205.286" width="68.5714" height="68.5714" transform="rotate(180 1234.29 205.286)" stroke="white" stroke-opacity="0.06" stroke-width="1.37143"/>
<rect x="1165.71" y="205.286" width="68.5714" height="68.5714" transform="rotate(180 1165.71 205.286)" stroke="white" stroke-opacity="0.06" stroke-width="1.37143"/>
<rect x="1097.14" y="205.286" width="68.5714" height="68.5714" transform="rotate(180 1097.14 205.286)" stroke="white" stroke-opacity="0.06" stroke-width="1.37143"/>
<rect x="1028.57" y="205.286" width="68.5714" height="68.5714" transform="rotate(180 1028.57 205.286)" stroke="white" stroke-opacity="0.06" stroke-width="1.37143"/>
<rect x="960" y="205.286" width="68.5714" height="68.5714" transform="rotate(180 960 205.286)" stroke="white" stroke-opacity="0.06" stroke-width="1.37143"/>
<rect x="891.429" y="205.286" width="68.5714" height="68.5714" transform="rotate(180 891.429 205.286)" stroke="white" stroke-opacity="0.06" stroke-width="1.37143"/>
<rect x="822.857" y="205.286" width="68.5714" height="68.5714" transform="rotate(180 822.857 205.286)" stroke="white" stroke-opacity="0.06" stroke-width="1.37143"/>
<rect x="754.286" y="205.286" width="68.5714" height="68.5714" transform="rotate(180 754.286 205.286)" stroke="white" stroke-opacity="0.06" stroke-width="1.37143"/>
<rect x="685.714" y="205.286" width="68.5714" height="68.5714" transform="rotate(180 685.714 205.286)" stroke="white" stroke-opacity="0.06" stroke-width="1.37143"/>
<rect x="617.143" y="205.286" width="68.5714" height="68.5714" transform="rotate(180 617.143 205.286)" stroke="white" stroke-opacity="0.06" stroke-width="1.37143"/>
<rect x="548.571" y="205.286" width="68.5714" height="68.5714" transform="rotate(180 548.571 205.286)" stroke="white" stroke-opacity="0.06" stroke-width="1.37143"/>
<rect x="480" y="205.286" width="68.5714" height="68.5714" transform="rotate(180 480 205.286)" stroke="white" stroke-opacity="0.06" stroke-width="1.37143"/>
<rect x="411.428" y="205.286" width="68.5714" height="68.5714" transform="rotate(180 411.428 205.286)" stroke="white" stroke-opacity="0.06" stroke-width="1.37143"/>
<rect x="342.857" y="205.286" width="68.5714" height="68.5714" transform="rotate(180 342.857 205.286)" stroke="white" stroke-opacity="0.06" stroke-width="1.37143"/>
<rect x="274.286" y="205.286" width="68.5714" height="68.5714" transform="rotate(180 274.286 205.286)" stroke="white" stroke-opacity="0.06" stroke-width="1.37143"/>
<rect x="205.714" y="205.286" width="68.5714" height="68.5714" transform="rotate(180 205.714 205.286)" stroke="white" stroke-opacity="0.06" stroke-width="1.37143"/>
<rect x="137.143" y="205.286" width="68.5714" height="68.5714" transform="rotate(180 137.143 205.286)" stroke="white" stroke-opacity="0.06" stroke-width="1.37143"/>
<rect x="68.5715" y="205.286" width="68.5714" height="68.5714" transform="rotate(180 68.5715 205.286)" stroke="white" stroke-opacity="0.06" stroke-width="1.37143"/>
<rect x="1440" y="136.714" width="68.5714" height="68.5714" transform="rotate(180 1440 136.714)" stroke="white" stroke-opacity="0.06" stroke-width="1.37143"/>
<rect x="1371.43" y="136.714" width="68.5714" height="68.5714" transform="rotate(180 1371.43 136.714)" stroke="white" stroke-opacity="0.06" stroke-width="1.37143"/>
<rect x="1302.86" y="136.714" width="68.5714" height="68.5714" transform="rotate(180 1302.86 136.714)" stroke="white" stroke-opacity="0.06" stroke-width="1.37143"/>
<rect x="1234.29" y="136.714" width="68.5714" height="68.5714" transform="rotate(180 1234.29 136.714)" stroke="white" stroke-opacity="0.06" stroke-width="1.37143"/>
<rect x="1165.71" y="136.714" width="68.5714" height="68.5714" transform="rotate(180 1165.71 136.714)" stroke="white" stroke-opacity="0.06" stroke-width="1.37143"/>
<rect x="1097.14" y="136.714" width="68.5714" height="68.5714" transform="rotate(180 1097.14 136.714)" stroke="white" stroke-opacity="0.06" stroke-width="1.37143"/>
<rect x="1028.57" y="136.714" width="68.5714" height="68.5714" transform="rotate(180 1028.57 136.714)" stroke="white" stroke-opacity="0.06" stroke-width="1.37143"/>
<rect x="960" y="136.714" width="68.5714" height="68.5714" transform="rotate(180 960 136.714)" stroke="white" stroke-opacity="0.06" stroke-width="1.37143"/>
<rect x="891.429" y="136.714" width="68.5714" height="68.5714" transform="rotate(180 891.429 136.714)" stroke="white" stroke-opacity="0.06" stroke-width="1.37143"/>
<rect x="822.857" y="136.714" width="68.5714" height="68.5714" transform="rotate(180 822.857 136.714)" stroke="white" stroke-opacity="0.06" stroke-width="1.37143"/>
<rect x="754.286" y="136.714" width="68.5714" height="68.5714" transform="rotate(180 754.286 136.714)" stroke="white" stroke-opacity="0.06" stroke-width="1.37143"/>
<rect x="685.714" y="136.714" width="68.5714" height="68.5714" transform="rotate(180 685.714 136.714)" stroke="white" stroke-opacity="0.06" stroke-width="1.37143"/>
<rect x="617.143" y="136.714" width="68.5714" height="68.5714" transform="rotate(180 617.143 136.714)" stroke="white" stroke-opacity="0.06" stroke-width="1.37143"/>
<rect x="548.571" y="136.714" width="68.5714" height="68.5714" transform="rotate(180 548.571 136.714)" stroke="white" stroke-opacity="0.06" stroke-width="1.37143"/>
<rect x="480" y="136.714" width="68.5714" height="68.5714" transform="rotate(180 480 136.714)" stroke="white" stroke-opacity="0.06" stroke-width="1.37143"/>
<rect x="411.428" y="136.714" width="68.5714" height="68.5714" transform="rotate(180 411.428 136.714)" stroke="white" stroke-opacity="0.06" stroke-width="1.37143"/>
<rect x="342.857" y="136.714" width="68.5714" height="68.5714" transform="rotate(180 342.857 136.714)" stroke="white" stroke-opacity="0.06" stroke-width="1.37143"/>
<rect x="274.286" y="136.714" width="68.5714" height="68.5714" transform="rotate(180 274.286 136.714)" stroke="white" stroke-opacity="0.06" stroke-width="1.37143"/>
<rect x="205.714" y="136.714" width="68.5714" height="68.5714" transform="rotate(180 205.714 136.714)" stroke="white" stroke-opacity="0.06" stroke-width="1.37143"/>
<rect x="137.143" y="136.714" width="68.5714" height="68.5714" transform="rotate(180 137.143 136.714)" stroke="white" stroke-opacity="0.06" stroke-width="1.37143"/>
<rect x="68.5715" y="136.714" width="68.5714" height="68.5714" transform="rotate(180 68.5715 136.714)" stroke="white" stroke-opacity="0.06" stroke-width="1.37143"/>
<rect x="1440" y="68.1428" width="68.5714" height="68.5714" transform="rotate(180 1440 68.1428)" stroke="white" stroke-opacity="0.06" stroke-width="1.37143"/>
<rect x="1371.43" y="68.1428" width="68.5714" height="68.5714" transform="rotate(180 1371.43 68.1428)" stroke="white" stroke-opacity="0.06" stroke-width="1.37143"/>
<rect x="1302.86" y="68.1428" width="68.5714" height="68.5714" transform="rotate(180 1302.86 68.1428)" stroke="white" stroke-opacity="0.06" stroke-width="1.37143"/>
<rect x="1234.29" y="68.1428" width="68.5714" height="68.5714" transform="rotate(180 1234.29 68.1428)" stroke="white" stroke-opacity="0.06" stroke-width="1.37143"/>
<rect x="1165.71" y="68.1428" width="68.5714" height="68.5714" transform="rotate(180 1165.71 68.1428)" stroke="white" stroke-opacity="0.06" stroke-width="1.37143"/>
<rect x="1097.14" y="68.1428" width="68.5714" height="68.5714" transform="rotate(180 1097.14 68.1428)" stroke="white" stroke-opacity="0.06" stroke-width="1.37143"/>
<rect x="1028.57" y="68.1428" width="68.5714" height="68.5714" transform="rotate(180 1028.57 68.1428)" stroke="white" stroke-opacity="0.06" stroke-width="1.37143"/>
<rect x="960" y="68.1428" width="68.5714" height="68.5714" transform="rotate(180 960 68.1428)" stroke="white" stroke-opacity="0.06" stroke-width="1.37143"/>
<rect x="891.429" y="68.1428" width="68.5714" height="68.5714" transform="rotate(180 891.429 68.1428)" stroke="white" stroke-opacity="0.06" stroke-width="1.37143"/>
<rect x="822.857" y="68.1428" width="68.5714" height="68.5714" transform="rotate(180 822.857 68.1428)" stroke="white" stroke-opacity="0.06" stroke-width="1.37143"/>
<rect x="754.286" y="68.1428" width="68.5714" height="68.5714" transform="rotate(180 754.286 68.1428)" stroke="white" stroke-opacity="0.06" stroke-width="1.37143"/>
<rect x="685.714" y="68.1428" width="68.5714" height="68.5714" transform="rotate(180 685.714 68.1428)" stroke="white" stroke-opacity="0.06" stroke-width="1.37143"/>
<rect x="617.143" y="68.1428" width="68.5714" height="68.5714" transform="rotate(180 617.143 68.1428)" stroke="white" stroke-opacity="0.06" stroke-width="1.37143"/>
<rect x="548.571" y="68.1428" width="68.5714" height="68.5714" transform="rotate(180 548.571 68.1428)" stroke="white" stroke-opacity="0.06" stroke-width="1.37143"/>
<rect x="480" y="68.1428" width="68.5714" height="68.5714" transform="rotate(180 480 68.1428)" stroke="white" stroke-opacity="0.06" stroke-width="1.37143"/>
<rect x="411.428" y="68.1428" width="68.5714" height="68.5714" transform="rotate(180 411.428 68.1428)" stroke="white" stroke-opacity="0.06" stroke-width="1.37143"/>
<rect x="342.857" y="68.1428" width="68.5714" height="68.5714" transform="rotate(180 342.857 68.1428)" stroke="white" stroke-opacity="0.06" stroke-width="1.37143"/>
<rect x="274.286" y="68.1428" width="68.5714" height="68.5714" transform="rotate(180 274.286 68.1428)" stroke="white" stroke-opacity="0.06" stroke-width="1.37143"/>
<rect x="205.714" y="68.1428" width="68.5714" height="68.5714" transform="rotate(180 205.714 68.1428)" stroke="white" stroke-opacity="0.06" stroke-width="1.37143"/>
<rect x="137.143" y="68.1428" width="68.5714" height="68.5714" transform="rotate(180 137.143 68.1428)" stroke="white" stroke-opacity="0.06" stroke-width="1.37143"/>
<rect x="68.5714" y="68.1428" width="68.5714" height="68.5714" transform="rotate(180 68.5714 68.1428)" stroke="white" stroke-opacity="0.06" stroke-width="1.37143"/>
</g>
<defs>
<clipPath id="clip0_133_1528">
<rect width="1440" height="891" fill="white" transform="matrix(-1 0 0 -1 1440 891)"/>
</clipPath>
</defs>
</svg>
