<svg width="18" height="22" viewBox="0 0 18 22" fill="none" xmlns="http://www.w3.org/2000/svg">
<path d="M13 7H5V5C5 4.20435 5.31607 3.44129 5.87868 2.87868C6.44129 2.31607 7.20435 2 8 2H10C10.666 1.99883 11.3134 2.21931 11.8403 2.62668C12.3672 3.03405 12.7435 3.60516 12.91 4.25C12.9339 4.38591 12.9857 4.5154 13.0621 4.63032C13.1385 4.74523 13.2379 4.8431 13.3539 4.91775C13.47 4.99239 13.6002 5.04221 13.7365 5.06406C13.8728 5.08592 14.0121 5.07933 14.1457 5.04473C14.2792 5.01012 14.4042 4.94823 14.5127 4.86297C14.6212 4.77771 14.7109 4.67091 14.7761 4.5493C14.8414 4.42768 14.8807 4.29389 14.8917 4.15633C14.9027 4.01877 14.8851 3.88043 14.84 3.75C14.5629 2.67692 13.9372 1.72631 13.0611 1.04753C12.185 0.368748 11.1083 0.000272462 10 0H8C6.67392 0 5.40215 0.526784 4.46447 1.46447C3.52678 2.40215 3 3.67392 3 5V7.42C2.10874 7.80898 1.35025 8.44941 0.817405 9.26289C0.284564 10.0764 0.000501002 11.0276 0 12V17C0 18.3261 0.526784 19.5979 1.46447 20.5355C2.40215 21.4732 3.67392 22 5 22H13C14.3261 22 15.5979 21.4732 16.5355 20.5355C17.4732 19.5979 18 18.3261 18 17V12C18 10.6739 17.4732 9.40215 16.5355 8.46447C15.5979 7.52678 14.3261 7 13 7ZM10 15C10 15.2652 9.89464 15.5196 9.70711 15.7071C9.51957 15.8946 9.26522 16 9 16C8.73478 16 8.48043 15.8946 8.29289 15.7071C8.10536 15.5196 8 15.2652 8 15V13C8 12.7348 8.10536 12.4804 8.29289 12.2929C8.48043 12.1054 8.73478 12 9 12C9.26522 12 9.51957 12.1054 9.70711 12.2929C9.89464 12.4804 10 12.7348 10 13V15Z" fill="white"/>
</svg>
