<svg width="18" height="21" viewBox="0 0 18 21" fill="none" xmlns="http://www.w3.org/2000/svg">
<path d="M6.34171 19.5277C6.34171 19.3877 6.33922 19.1019 6.33599 18.7304C6.33207 18.2798 6.32705 17.7032 6.32404 17.108C2.70816 17.8941 1.94518 15.5744 1.94518 15.5744C1.35391 14.0721 0.50198 13.6725 0.50198 13.6725C-0.677216 12.8659 0.59093 12.8826 0.59093 12.8826C1.89604 12.9741 2.58327 14.2219 2.58327 14.2219C3.74256 16.2088 5.62391 15.6344 6.36557 15.3023C6.48224 14.4623 6.81905 13.8888 7.19079 13.5643C4.30388 13.2357 1.26912 12.1212 1.26912 7.14102C1.26912 5.72198 1.77683 4.56249 2.60825 3.65227C2.4733 3.3249 2.02845 2.00304 2.73416 0.212669C2.73416 0.212669 3.82562 -0.136632 6.30942 1.54499C7.34615 1.25702 8.45803 1.11263 9.56259 1.10765C10.6672 1.11263 11.7799 1.25692 12.8186 1.54499C15.2994 -0.13653 16.3893 0.212771 16.3893 0.212771C17.0967 2.00294 16.6517 3.325 16.5167 3.65227C17.3501 4.56249 17.8543 5.72198 17.8543 7.14102C17.8543 12.1331 14.8138 13.2323 11.9196 13.554C12.3857 13.9574 12.8011 14.7484 12.8011 15.961C12.8011 17.1233 12.7944 18.134 12.79 18.8043C12.7878 19.1369 12.7861 19.3857 12.7861 19.5277C12.7861 20.6958 12.7714 20.8174 9.56249 20.8174C6.36357 20.8174 6.34171 20.6981 6.34171 19.5277Z" fill="#F7F9FC"/>
</svg>
