<svg width="20" height="20" viewBox="0 0 20 20" fill="none" xmlns="http://www.w3.org/2000/svg">
<path fill-rule="evenodd" clip-rule="evenodd" d="M14.9771 5.02294C13.8353 3.88122 12.0388 3.88122 10.897 5.02294L9.51186 6.40812C8.86098 7.05899 7.80571 7.05899 7.15483 6.40812C6.50396 5.75725 6.50396 4.70197 7.15483 4.0511L8.54002 2.66591C10.9835 0.222446 14.8906 0.222446 17.3341 2.66591C19.7775 5.10938 19.7775 9.01651 17.3341 11.46L15.9489 12.8452C15.298 13.496 14.2427 13.496 13.5919 12.8452C12.941 12.1943 12.941 11.139 13.5919 10.4881L14.9771 9.10295C16.1188 7.96123 16.1188 6.16465 14.9771 5.02294ZM13.6785 6.32147C14.3294 6.97234 14.3294 8.02762 13.6785 8.67849L8.67852 13.6785C8.02765 14.3294 6.97237 14.3294 6.3215 13.6785C5.67063 13.0276 5.67063 11.9723 6.3215 11.3215L11.3215 6.32147C11.9724 5.67059 13.0276 5.67059 13.6785 6.32147ZM6.40815 7.1548C7.05903 7.80568 7.05903 8.86095 6.40815 9.51183L5.02297 10.897C3.88125 12.0387 3.88125 13.8353 5.02297 14.977C6.16469 16.1187 7.96126 16.1187 9.10298 14.977L10.4882 13.5918C11.139 12.941 12.1943 12.941 12.8452 13.5918C13.4961 14.2427 13.4961 15.298 12.8452 15.9489L11.46 17.334C9.01654 19.7775 5.10941 19.7775 2.66594 17.334C0.222477 14.8906 0.222477 10.9835 2.66594 8.53999L4.05113 7.1548C4.702 6.50393 5.75728 6.50393 6.40815 7.1548Z" fill="white"/>
</svg>
