<svg width="21" height="21" viewBox="0 0 21 21" fill="none" xmlns="http://www.w3.org/2000/svg">
<path fill-rule="evenodd" clip-rule="evenodd" d="M10.7133 0.698447C12.4362 0.698447 14.1838 0.628667 15.8951 0.858743C17.1333 1.02522 18.1759 1.38137 19.0039 2.2094C19.832 3.03743 20.1881 4.08001 20.3546 5.31824C20.5847 7.02953 20.5149 8.77714 20.5149 10.5C20.5149 12.2229 20.5847 13.9705 20.3546 15.6818C20.1881 16.92 19.832 17.9626 19.0039 18.7906C18.1759 19.6186 17.1333 19.9748 15.8951 20.1413C14.1838 20.3713 12.4362 20.3016 10.7133 20.3016C8.99046 20.3016 7.24285 20.3713 5.53157 20.1413C4.29333 19.9748 3.25076 19.6186 2.42272 18.7906C1.59469 17.9626 1.23855 16.92 1.07207 15.6818C0.841992 13.9705 0.911772 12.2229 0.911772 10.5C0.911772 8.77714 0.841992 7.02953 1.07207 5.31824C1.23855 4.08001 1.59469 3.03743 2.42272 2.2094C3.25076 1.38137 4.29333 1.02522 5.53157 0.858743C7.24285 0.628667 8.99046 0.698447 10.7133 0.698447ZM5.55461 6.37303C5.55461 5.80322 6.01654 5.34129 6.58636 5.34129H6.58837C7.15819 5.34129 7.62011 5.80322 7.62011 6.37303C7.62011 6.94285 7.15819 7.40477 6.58837 7.40477H6.58636C6.01654 7.40477 5.55461 6.94285 5.55461 6.37303ZM13.2954 9.66582C12.9293 9.44582 12.4188 9.35439 11.9474 9.44866C11.6938 9.49939 11.3629 9.70964 11.0656 10.0443C10.9263 10.201 10.8221 10.3549 10.7584 10.4751C10.7346 10.52 10.7208 10.5515 10.7133 10.5706V14.627C10.7133 15.1968 10.2514 15.6587 9.68158 15.6587C9.11177 15.6587 8.64984 15.1968 8.64984 14.627V8.43652C8.64984 7.8667 9.11177 7.40477 9.68158 7.40477C10.0263 7.40477 10.3316 7.57385 10.5189 7.83361C10.8252 7.64815 11.1687 7.50006 11.5427 7.42525C12.4959 7.23462 13.5329 7.40111 14.3583 7.89714C15.2075 8.40746 15.872 9.30256 15.872 10.5003V14.6273C15.872 15.1971 15.4101 15.6591 14.8403 15.6591C14.2705 15.6591 13.8086 15.1971 13.8086 14.6273V10.5003C13.8086 10.1506 13.6377 9.87152 13.2954 9.66582ZM6.58636 8.43652C7.15617 8.43652 7.6181 8.89844 7.6181 9.46826V14.627C7.6181 15.1968 7.15617 15.6587 6.58636 15.6587C6.01654 15.6587 5.55461 15.1968 5.55461 14.627V9.46826C5.55461 8.89844 6.01654 8.43652 6.58636 8.43652Z" fill="#F7F9FC"/>
</svg>
