<svg width="23" height="19" viewBox="0 0 23 19" fill="none" xmlns="http://www.w3.org/2000/svg">
<path d="M17.3869 0H6.21043C2.85749 0 0.622192 1.67647 0.622192 5.58824V13.4118C0.622192 17.3235 2.85749 19 6.21043 19H17.3869C20.7398 19 22.9751 17.3235 22.9751 13.4118V5.58824C22.9751 1.67647 20.7398 0 17.3869 0ZM17.9122 6.80647L14.414 9.60059C13.6763 10.1929 12.7375 10.4835 11.7987 10.4835C10.8598 10.4835 9.90984 10.1929 9.18337 9.60059L5.68513 6.80647C5.32749 6.51588 5.2716 5.97941 5.55102 5.62176C5.8416 5.26412 6.3669 5.19706 6.72455 5.48765L10.2228 8.28176C11.0722 8.96353 12.514 8.96353 13.3634 8.28176L16.8616 5.48765C17.2193 5.19706 17.7557 5.25294 18.0351 5.62176C18.3257 5.97941 18.2698 6.51588 17.9122 6.80647Z" fill="white"/>
</svg>
