<svg width="19" height="21" viewBox="0 0 19 21" fill="none" xmlns="http://www.w3.org/2000/svg">
<path fill-rule="evenodd" clip-rule="evenodd" d="M1.04687 4.0737C-0.0617344 2.72754 0.895848 0.698448 2.63974 0.698448H3.11975C4.35295 0.698448 5.52153 1.24993 6.30548 2.20187L10.826 7.6911L16.1849 1.56665C16.5601 1.13782 17.2119 1.09437 17.6408 1.4696C18.0696 1.84482 18.1131 2.49664 17.7378 2.92547L12.1554 9.30537L18.4315 16.9263C19.5401 18.2725 18.5825 20.3016 16.8386 20.3016H16.3586C15.1254 20.3016 13.9568 19.7501 13.1729 18.7981L8.65233 13.3089L3.29344 19.4333C2.91822 19.8622 2.2664 19.9056 1.83757 19.5304C1.40874 19.1552 1.36528 18.5034 1.74051 18.0745L7.32293 11.6946L1.04687 4.0737Z" fill="#F7F9FC"/>
</svg>
