<?xml version="1.0" encoding="UTF-8"?>
<svg id="Layer_1" xmlns="http://www.w3.org/2000/svg" viewBox="0 0 250 250">
  <defs>
    <style>
      .cls-1 {
        fill: #5b42bd;
      }
    </style>
  </defs>
  <path class="cls-1" d="M196.41,110.48h4.49v53.59h-4.49v-53.59Z"/>
  <path class="cls-1" d="M165.72,122.75h4.5v41.32h-4.5v-41.32Z"/>
  <path class="cls-1" d="M135.03,135.03h4.5v29.05h-4.5v-29.05Z"/>
  <path class="cls-1" d="M246.89,171.85H113.58c-1.71,0-3.11,1.4-3.11,3.11v71.93c0,1.71,1.4,3.11,3.11,3.11h133.31c1.71,0,3.11-1.4,3.11-3.11v-71.93c0-1.71-1.4-3.11-3.11-3.11ZM243.59,235.44c0,6.01-4.88,10.89-10.88,10.89h-105.99c-6,0-10.88-4.88-10.88-10.89v-47.57c0-6,4.88-10.89,10.88-10.89h105.99c6,0,10.88,4.89,10.88,10.89v47.57Z"/>
  <path class="cls-1" d="M45.98,199.03l-19.26,8.7,6.1,3.73c.38.23.69.57.88.96.33.68.31,1.49-.04,2.15l-16.03,29.38,5.88,3.6,15.92-29.19c.3-.56.83-.97,1.45-1.13.61-.16,1.28-.07,1.82.26l5.79,3.54-2.5-22Z"/>
  <path class="cls-1" d="M87.32,119.68H15.38c-1.71,0-3.1,1.4-3.1,3.11v78.07c0,1.71,1.39,3.11,3.1,3.11h4.59c.06-.03.12-.06.18-.09l26.19-11.84c1.13-.51,2.44-.45,3.52.16,1.08.61,1.8,1.71,1.95,2.94l1.01,8.83h34.51c1.71,0,3.1-1.4,3.1-3.11v-78.07c0-1.71-1.39-3.11-3.1-3.11ZM26.97,127.59h36.83c2.15,0,3.89,1.74,3.89,3.89s-1.74,3.89-3.89,3.89H26.97c-2.15,0-3.89-1.74-3.89-3.89s1.74-3.89,3.89-3.89ZM26.97,146.27h18.15c2.15,0,3.89,1.74,3.89,3.89s-1.74,3.89-3.89,3.89h-18.15c-2.15,0-3.89-1.74-3.89-3.89s1.74-3.89,3.89-3.89ZM26.97,164.42h36.83c2.15,0,3.89,1.74,3.89,3.89s-1.74,3.89-3.89,3.89H26.97c-2.15,0-3.89-1.74-3.89-3.89s1.74-3.89,3.89-3.89ZM76.24,190.35H26.97c-2.15,0-3.89-1.74-3.89-3.89s1.74-3.89,3.89-3.89h49.27c2.15,0,3.89,1.74,3.89,3.89s-1.74,3.89-3.89,3.89Z"/>
  <path class="cls-1" d="M218.88,95.43v68.64h-10.2v-57.48c0-2.15-1.74-3.89-3.89-3.89h-12.27c-2.15,0-3.89,1.74-3.89,3.89v57.48h-10.63v-45.21c0-2.15-1.74-3.89-3.89-3.89h-12.28c-2.15,0-3.89,1.74-3.89,3.89v45.21h-10.63v-32.94c0-2.15-1.74-3.89-3.89-3.89h-12.28c-2.15,0-3.89,1.74-3.89,3.89v32.94h-11.06v-68.64c0-1.71,1.4-3.11,3.11-3.11h96.48c1.71,0,3.11,1.4,3.11,3.11h0Z"/>
  <path class="cls-1" d="M231.59,42.36v121.71h-4.93v-68.64c0-6.01-4.88-10.89-10.89-10.89h-96.48c-6.01,0-10.89,4.88-10.89,10.89v69.95c-3.4,1.85-5.71,5.45-5.71,9.57v50.49h-47.46c0-.12-1.55-13.7-1.55-13.7h33.63c6,0,10.88-4.88,10.88-10.89v-78.07c0-6.01-4.88-10.89-10.88-10.89H15.38c-6,0-10.88,4.88-10.88,10.89v78.07c0,6.01,4.88,10.89,10.88,10.89h5.98l5.07,3.1-5.78,10.61h-8.97C5.23,225.45,0,220.21,0,213.78V42.36C0,35.92,5.23,30.69,11.67,30.69h.99c-1.32,4.62-2.02,9.49-2.02,14.52,0,29.22,23.77,52.99,52.99,52.99s52.99-23.77,52.99-52.99c0-5.04-.71-9.91-2.02-14.52h105.33c6.44,0,11.67,5.23,11.67,11.67h0Z"/>
  <path class="cls-1" d="M95.72,77.02c-3.67,3.7-7.97,6.78-12.73,9.05-4.76,2.27-9.98,3.72-15.47,4.19l.02-36.76,28.18,23.52Z"/>
  <path class="cls-1" d="M108.83,45.21c0,9.6-3.01,18.51-8.13,25.84l-31.58-26.36,26.31-31.58c2.93,2.9,5.46,6.19,7.51,9.8,1.4,2.46,2.58,5.06,3.5,7.78,1.55,4.56,2.39,9.45,2.39,14.52Z"/>
  <path class="cls-1" d="M89.45,8.13l-28.79,34.54c-.59.7-.89,1.61-.9,2.52l-.02,45.07c-23.12-1.98-41.32-21.43-41.32-45.04,0-5.08.84-9.96,2.39-14.52.92-2.72,2.1-5.32,3.51-7.78C32.09,9.24,46.8,0,63.63,0c9.6,0,18.5,3.01,25.82,8.13h0Z"/>
  <path class="cls-1" d="M232.71,184.76h-105.99c-1.71,0-3.1,1.4-3.1,3.11v47.57c0,1.71,1.39,3.11,3.1,3.11h105.99c1.71,0,3.1-1.4,3.1-3.11v-47.57c0-1.71-1.39-3.11-3.1-3.11ZM143.67,232.88h-12.45c-2.15,0-3.89-1.74-3.89-3.89s1.74-3.89,3.89-3.89h12.45c2.15,0,3.89,1.74,3.89,3.89s-1.74,3.89-3.89,3.89ZM143.67,215.25h-12.45c-2.15,0-3.89-1.74-3.89-3.89s1.74-3.89,3.89-3.89h12.45c2.15,0,3.89,1.74,3.89,3.89s-1.74,3.89-3.89,3.89ZM143.67,196.58h-12.45c-2.15,0-3.89-1.74-3.89-3.89s1.74-3.89,3.89-3.89h12.45c2.15,0,3.89,1.74,3.89,3.89s-1.74,3.89-3.89,3.89ZM231.72,200.59l-5.89,11.35c-1.97,3.8-5.84,6.04-10.12,5.86-4.27-.18-7.95-2.75-9.59-6.7-.76-1.83-2.45-1.92-2.96-1.91-.5.02-2.19.21-2.84,2.09l-2.58,7.45c-1.31,3.78-4.56,6.52-8.51,7.18s-7.91-.9-10.37-4.05l-3.38-4.34c-1.02-1.32-2.41-1.24-2.96-1.16-.55.09-1.88.47-2.43,2.05l-2.19,6.33c-.56,1.61-2.06,2.62-3.68,2.62-.42,0-.85-.07-1.27-.21-2.03-.71-3.11-2.92-2.41-4.95l2.19-6.33c1.31-3.78,4.56-6.52,8.51-7.18,3.94-.65,7.91.9,10.37,4.05l3.38,4.35c1.03,1.31,2.41,1.24,2.96,1.15.55-.09,1.88-.47,2.43-2.04l2.58-7.45c1.49-4.31,5.4-7.18,9.96-7.32.11,0,.23,0,.34,0,4.42,0,8.34,2.61,10.04,6.71.68,1.65,2.14,1.89,2.74,1.91.6.04,2.06-.08,2.88-1.67l5.9-11.35c.99-1.91,3.34-2.65,5.24-1.66,1.91.99,2.65,3.34,1.66,5.24h0Z"/>
</svg>