<?xml version="1.0" encoding="UTF-8"?>
<svg id="Layer_1" xmlns="http://www.w3.org/2000/svg" viewBox="0 0 250 250">
  <defs>
    <style>
      .cls-1 {
        fill: #5b42bd;
      }
    </style>
  </defs>
  <path class="cls-1" d="M206.55,81.58C206.57,36.54,170.07.02,125.03,0,79.99-.02,43.46,36.48,43.45,81.52c-.01,40.36,29.5,74.66,69.41,80.67v10.53h-3.84c-2.46,0-4.46,2-4.46,4.46v52.36c0,11.29,9.15,20.44,20.44,20.44s20.44-9.15,20.44-20.44v-52.36c0-2.46-2-4.46-4.46-4.46h-3.84v-10.53c39.86-6.06,69.34-40.3,69.41-80.62h0ZM125,8.96c25.87.02,49.77,13.79,62.76,36.16H62.24c12.99-22.37,36.9-36.14,62.76-36.16ZM184.99,75.24l-7.23,16.25c-.98,2.26-3.6,3.29-5.86,2.31-1.03-.45-1.86-1.27-2.31-2.31l-3.08-7.05-3.12,7.05c-.98,2.26-3.6,3.29-5.86,2.31-1.03-.45-1.86-1.27-2.31-2.31l-7.23-16.25c-.99-2.26.03-4.88,2.28-5.89,2.22-1.01,4.84-.04,5.85,2.18.01.03.03.06.04.1l3.12,7.05,3.12-7.05c.98-2.26,3.6-3.29,5.86-2.31,1.03.45,1.86,1.27,2.31,2.31l3.12,7.05,3.12-7.05c.96-2.24,3.55-3.28,5.8-2.32.03.01.06.03.1.04,2.25,1.01,3.26,3.64,2.28,5.89ZM143.48,75.24l-7.19,16.25c-.98,2.26-3.6,3.29-5.86,2.31-1.03-.45-1.86-1.27-2.31-2.31l-3.12-7.01-3.12,7.01c-.98,2.26-3.6,3.29-5.86,2.31-1.03-.45-1.86-1.27-2.31-2.31l-7.19-16.25c-1.01-2.25,0-4.89,2.26-5.9,2.25-1.01,4.89,0,5.9,2.26,0,0,0,.02.01.03l3.12,7.05,3.12-7.05c.96-2.24,3.56-3.28,5.8-2.32,1.04.45,1.87,1.28,2.32,2.32l3.12,7.05,3.12-7.05c.99-2.26,3.63-3.29,5.89-2.29,2.26.99,3.29,3.63,2.29,5.89,0,0,0,.02-.01.02h0ZM102.01,75.24l-7.23,16.25c-.98,2.26-3.6,3.29-5.86,2.31-1.03-.45-1.86-1.27-2.31-2.31l-3.12-7.05-3.08,7.05c-.98,2.26-3.6,3.29-5.86,2.31-1.03-.45-1.86-1.27-2.31-2.31l-7.23-16.25c-.99-2.26.03-4.88,2.28-5.89,2.22-1.01,4.84-.04,5.85,2.18.01.03.03.06.04.1l3.12,7.05,3.12-7.05c.98-2.26,3.6-3.29,5.86-2.31,1.03.45,1.86,1.27,2.31,2.31l3.12,7.05,3.12-7.05c.96-2.24,3.55-3.28,5.8-2.32.03.01.06.03.1.04,2.25,1.01,3.26,3.64,2.28,5.89ZM125,154.16c-25.87,0-49.79-13.77-62.76-36.16h125.52c-12.97,22.38-36.89,36.16-62.76,36.16h0Z"/>
  <path class="cls-1" d="M245.52,59.08h-35.17c.77,2.94,1.38,5.92,1.83,8.93.72,4.49,1.08,9.03,1.07,13.57,0,4.53-.35,9.05-1.03,13.53-.49,3.04-1.12,6.03-1.87,8.93h35.17c2.46,0,4.46-2,4.46-4.46v-36.02c0-2.46-2-4.46-4.46-4.46h0Z"/>
  <path class="cls-1" d="M39.65,59.08H4.48c-2.46,0-4.46,2-4.46,4.46v36.02c0,2.46,2,4.46,4.46,4.46h35.17c-.76-2.9-1.38-5.89-1.87-8.93-.68-4.48-1.02-9-1.03-13.53,0-4.54.35-9.08,1.07-13.57.45-3.01,1.06-5.99,1.83-8.93Z"/>
</svg>